<svg xmlns="http://www.w3.org/2000/svg" width="48" height="48" fill="none" viewBox="0 0 100 100">
  <defs>
    <linearGradient id="fav-c-grad" x1="0%" y1="0%" x2="100%" y2="100%">
      <stop offset="0%" stop-color="#00D2FF" />
      <stop offset="50%" stop-color="#3A4EFF" />
      <stop offset="100%" stop-color="#A826FF" />
    </linearGradient>
    <linearGradient id="fav-bar-grad" x1="0%" y1="0%" x2="0%" y2="100%">
      <stop offset="0%" stop-color="#00D2FF" stop-opacity="0.85" />
      <stop offset="100%" stop-color="#3A4EFF" stop-opacity="0.15" />
    </linearGradient>
    <filter id="fav-glow" x="-20%" y="-20%" width="140%" height="140%">
      <feGaussianBlur stdDeviation="1.5" result="blur" />
      <feComposite in="SourceGraphic" in2="blur" operator="over" />
    </filter>
  </defs>

  <path
    d="M 80.64 24.29 A 40 40 0 1 0 80.64 75.71 L 71.45 68.00 A 28 28 0 1 1 71.45 32.00 Z"
    fill="url(#fav-c-grad)"
  />

  <path
    d="M 42 34 L 35 39.5 L 42 45"
    stroke="white"
    stroke-width="2.5"
    stroke-linecap="round"
    stroke-linejoin="round"
  />
  <path
    d="M 47 47 L 53 32"
    stroke="white"
    stroke-width="2.5"
    stroke-linecap="round"
  />
  <path
    d="M 58 34 L 65 39.5 L 58 45"
    stroke="white"
    stroke-width="2.5"
    stroke-linecap="round"
    stroke-linejoin="round"
  />

  <rect x="41" y="66" width="3" height="8" rx="1" fill="url(#fav-bar-grad)" />
  <rect x="46" y="59" width="3" height="15" rx="1" fill="url(#fav-bar-grad)" />
  <rect x="51" y="51" width="3" height="23" rx="1" fill="url(#fav-bar-grad)" />
  <rect x="56" y="42" width="3" height="32" rx="1" fill="url(#fav-bar-grad)" />

  <path
    d="M 36 73 L 42.5 65 L 47.5 57 L 52.5 49 L 57.5 40 L 63 34"
    stroke="#00D2FF"
    stroke-width="2"
    stroke-linecap="round"
    stroke-linejoin="round"
    filter="url(#fav-glow)"
  />

  <circle cx="42.5" cy="65" r="1.8" fill="#FFFFFF" stroke="#00D2FF" stroke-width="1" />
  <circle cx="47.5" cy="57" r="1.8" fill="#FFFFFF" stroke="#00D2FF" stroke-width="1" />
  <circle cx="52.5" cy="49" r="1.8" fill="#FFFFFF" stroke="#00D2FF" stroke-width="1" />
  <circle cx="57.5" cy="40" r="1.8" fill="#FFFFFF" stroke="#00D2FF" stroke-width="1" />
</svg>